<svg enable-background="new 0 0 128 128" viewBox="0 0 128 128" xmlns="http://www.w3.org/2000/svg" xmlns:xlink="http://www.w3.org/1999/xlink"><linearGradient id="a" gradientUnits="userSpaceOnUse" x1="64" x2="64" y1="4.2" y2="124.4"><stop offset="0" stop-color="#81c784"/><stop offset=".4141" stop-color="#6ebe71"/><stop offset="1" stop-color="#4caf50"/></linearGradient><linearGradient id="b" gradientUnits="userSpaceOnUse" x1="63.984" x2="63.984" y1="18.5" y2="109.8"><stop offset="0" stop-color="#fff"/><stop offset=".5111" stop-color="#ebebeb"/><stop offset="1" stop-color="#e1e1e1"/></linearGradient><path d="m116 124h-104c-4.4 0-8-3.6-8-8v-104c0-4.4 3.6-8 8-8h104c4.4 0 8 3.6 8 8v104c0 4.4-3.6 8-8 8z" fill="url(#a)"/><path d="m116 7c2.8 0 5 2.2 5 5v104c0 2.8-2.2 5-5 5h-104c-2.8 0-5-2.2-5-5v-104c0-2.8 2.2-5 5-5zm0-3h-104c-4.4 0-8 3.6-8 8v104c0 4.4 3.6 8 8 8h104c4.4 0 8-3.6 8-8v-104c0-4.4-3.6-8-8-8z" fill="#424242" opacity=".2"/><path d="m42.8 109.5c-.5 0-1 0-1.6-.1-3.3-.6-6-2.9-7.1-6.1l-15.1-45.5c-1.6-4.8 1-9.9 5.8-11.5s9.9 1 11.5 5.8l9.8 29.5 47.1-59.6c3.1-3.9 8.8-4.6 12.8-1.5 3.9 3.1 4.6 8.8 1.5 12.8l-57.6 72.7c-1.7 2.2-4.4 3.5-7.1 3.5z" fill="url(#b)"/><path d="m100.4 20.8c1.5 0 3 .5 4.2 1.5 1.4 1.1 2.3 2.8 2.5 4.6s-.3 3.6-1.4 5l-57.6 72.8c-1.3 1.6-3.3 2.6-5.4 2.6-.4 0-.8 0-1.2-.1-2.5-.4-4.5-2.2-5.3-4.6l-15.1-45.5c-1.2-3.6.7-7.4 4.3-8.6.7-.2 1.4-.4 2.2-.4 2.9 0 5.5 1.9 6.5 4.7l9.8 29.5c.3.8.9 1.4 1.8 1.5h.4c.7 0 1.3-.3 1.8-.9l47.1-59.5c1.3-1.7 3.3-2.6 5.4-2.6m0-2.3c-2.7 0-5.3 1.2-7.1 3.4l-47.2 59.6-9.8-29.5c-1.3-3.8-4.8-6.2-8.6-6.2-1 0-1.9.2-2.9.5-4.8 1.6-7.4 6.7-5.8 11.5l15.2 45.5c1.1 3.2 3.8 5.5 7.1 6.1.5.1 1.1.1 1.6.1 2.8 0 5.4-1.3 7.1-3.4l57.6-72.8c3.1-3.9 2.5-9.7-1.5-12.8-1.7-1.3-3.7-2-5.7-2z" fill="#424242" opacity=".2"/></svg>